<svg xmlns="http://www.w3.org/2000/svg" style="display: none;">
    <symbol id="category" viewbox="0 0 18 19"> 
        <g clip-path="url(#clip0_1_7027)">
            <path d="M5.28 0.5H3C2.16 0.5 1.45 0.790001 0.87 1.37C0.29 1.95 0 2.66 0 3.5V5.72C0 6.56 0.29 7.27 0.87 7.85C1.45 8.43 2.16 8.72 3 8.72H5.28C6.08 8.72 6.78 8.43 7.38 7.85C7.98 7.27 8.26 6.58 8.22 5.78V3.5C8.26 2.66 7.98 1.95 7.38 1.37C6.78 0.790001 6.08 0.5 5.28 0.5ZM6.78 5.72C6.78 6.16 6.63 6.52 6.33 6.8C6.03 7.08 5.66 7.22 5.22 7.22H3C2.6 7.22 2.25 7.08 1.95 6.8C1.65 6.52 1.5 6.16 1.5 5.72V3.5C1.5 3.1 1.65 2.75 1.95 2.45C2.25 2.15 2.6 2 3 2H5.28C5.68 2 6.03 2.15 6.33 2.45C6.63 2.75 6.78 3.1 6.78 3.5V5.72ZM15 0.5H12.78C11.94 0.5 11.23 0.790001 10.65 1.37C10.07 1.95 9.78 2.66 9.78 3.5V5.72C9.78 6.56 10.07 7.27 10.65 7.85C11.23 8.43 11.94 8.72 12.78 8.72H15C15.84 8.72 16.55 8.43 17.13 7.85C17.71 7.27 18 6.58 18 5.78V3.5C18 2.66 17.71 1.95 17.13 1.37C16.55 0.790001 15.84 0.5 15 0.5ZM16.5 5.72C16.5 6.16 16.35 6.53 16.05 6.83C15.75 7.13 15.4 7.26 15 7.22H12.78C12.34 7.22 11.98 7.08 11.7 6.8C11.42 6.52 11.28 6.16 11.28 5.72V3.5C11.28 3.1 11.42 2.75 11.7 2.45C11.98 2.15 12.34 2 12.78 2H15C15.4 2 15.75 2.15 16.05 2.45C16.35 2.75 16.5 3.1 16.5 3.5V5.72ZM5.28 10.22H3C2.16 10.26 1.45 10.57 0.87 11.15C0.29 11.73 0 12.42 0 13.22V15.5C0 16.34 0.29 17.05 0.87 17.63C1.45 18.21 2.16 18.5 3 18.5H5.28C6.08 18.5 6.77 18.21 7.35 17.63C7.93 17.05 8.22 16.34 8.22 15.5V13.22C8.26 12.42 7.98 11.72 7.38 11.12C6.78 10.52 6.08 10.24 5.28 10.28V10.22ZM6.78 15.5C6.78 15.9 6.63 16.25 6.33 16.55C6.03 16.85 5.66 17 5.22 17H3C2.6 17 2.25 16.85 1.95 16.55C1.65 16.25 1.5 15.9 1.5 15.5V13.22C1.5 12.82 1.65 12.47 1.95 12.17C2.25 11.87 2.6 11.72 3 11.72H5.28C5.68 11.72 6.03 11.87 6.33 12.17C6.63 12.47 6.78 12.82 6.78 13.22V15.5ZM15 10.22H12.78C11.94 10.22 11.23 10.52 10.65 11.12C10.07 11.72 9.78 12.42 9.78 13.22V15.5C9.78 16.34 10.07 17.05 10.65 17.63C11.23 18.21 11.94 18.5 12.78 18.5H15C15.84 18.5 16.55 18.21 17.13 17.63C17.71 17.05 18 16.34 18 15.5V13.22C18 12.42 17.71 11.72 17.13 11.12C16.55 10.52 15.84 10.24 15 10.28V10.22ZM16.5 15.5C16.5 15.9 16.35 16.25 16.05 16.55C15.75 16.85 15.4 17 15 17H12.78C12.34 17 11.98 16.85 11.7 16.55C11.42 16.25 11.28 15.9 11.28 15.5V13.22C11.28 12.82 11.42 12.47 11.7 12.17C11.98 11.87 12.34 11.72 12.78 11.72H15C15.4 11.72 15.75 11.87 16.05 12.17C16.35 12.47 16.5 12.82 16.5 13.22V15.5Z" fill="white"/>
        </g>
        <defs>
            <clipPath id="clip0_1_7027">
                <rect width="18" height="18" fill="white" transform="matrix(1 0 0 -1 0 18.5)"/>
            </clipPath>
        </defs>
    </symbol>
    <symbol id="carticon-green" viewBox="0 0 24 24">
        <path d="M21.04 6H18C18 4.93333 17.7333 3.93333 17.2 3C16.6667 2.06667 15.9333 1.33333 15 0.800001C14.0667 0.266666 13.0667 0 12 0C10.9333 0 9.93333 0.266666 9 0.800001C8.06667 1.33333 7.33333 2.06667 6.8 3C6.26667 3.93333 6 4.93333 6 6H3.04C2.18667 6 1.46667 6.29333 0.88 6.88C0.293333 7.46667 0 8.18667 0 9.04V18.96C0 19.8667 0.226667 20.7067 0.68 21.48C1.13333 22.2533 1.74667 22.8667 2.52 23.32C3.29333 23.7733 4.10667 24 4.96 24H19.04C19.8933 24 20.7067 23.7733 21.48 23.32C22.2533 22.8667 22.8667 22.2533 23.32 21.48C23.7733 20.7067 24 19.8933 24 19.04V8.96C24 8.16 23.7067 7.46667 23.12 6.88C22.5333 6.29333 21.8133 6 20.96 6H21.04ZM12 2C13.12 2 14.0667 2.38667 14.84 3.16C15.6133 3.93333 16 4.88 16 6H8C8 4.88 8.38667 3.93333 9.16 3.16C9.93333 2.38667 10.88 2 12 2ZM22 18.96C22 19.8133 21.7067 20.5333 21.12 21.12C20.5333 21.7067 19.8133 22 18.96 22H5.04C4.18667 22 3.46667 21.7067 2.88 21.12C2.29333 20.5333 2 19.84 2 19.04V8.96C2 8.69333 2.09333 8.46667 2.28 8.28C2.46667 8.09333 2.69333 8 2.96 8H6V10C6 10.2667 6.09333 10.5067 6.28 10.72C6.46667 10.9333 6.70667 11.0267 7 11C7.29333 10.9733 7.53333 10.8667 7.72 10.68C7.90667 10.4933 8 10.2667 8 10V8H16V10C16 10.2667 16.0933 10.5067 16.28 10.72C16.4667 10.9333 16.7067 11.0267 17 11C17.2933 10.9733 17.5333 10.8667 17.72 10.68C17.9067 10.4933 18 10.2667 18 10V8H21.04C21.3067 8 21.5333 8.09333 21.72 8.28C21.9067 8.46667 22 8.69333 22 8.96V18.96Z" fill="#5CAF90"/>
    </symbol>
    <symbol id="witchlisticon" viewBox="0 0 25 25">
        <g clip-path="url(#clip0_1_830)">
            <path d="M18.29 2.42C17.1167 2.42 16.0367 2.71334 15.05 3.3C14.0634 3.88667 13.3034 4.68667 12.77 5.7C12.2367 4.68667 11.4767 3.88667 10.49 3.3C9.50335 2.71334 8.41002 2.43333 7.21002 2.46C6.01002 2.48667 4.90335 2.82 3.89002 3.46C2.87668 4.1 2.09002 4.95333 1.53002 6.02C0.970018 7.08667 0.716685 8.23333 0.770018 9.46C0.770018 11.54 1.73002 13.8333 3.65002 16.34C5.14335 18.26 7.11668 20.26 9.57002 22.34C10.4767 23.14 11.5434 23.54 12.77 23.54C13.9967 23.54 15.0634 23.14 15.97 22.34C18.4234 20.26 20.3967 18.26 21.89 16.34C23.81 13.8333 24.77 11.54 24.77 9.46C24.8233 8.23333 24.57 7.08667 24.01 6.02C23.45 4.95333 22.6633 4.1 21.65 3.46C20.6367 2.82 19.5167 2.47334 18.29 2.42ZM14.69 20.82C14.1567 21.3 13.5167 21.54 12.77 21.54C12.0234 21.54 11.3834 21.3 10.85 20.82C8.29002 18.6867 6.30335 16.62 4.89002 14.62C3.47668 12.62 2.77002 10.9 2.77002 9.46C2.71668 8.60667 2.89002 7.80667 3.29002 7.06C3.69002 6.31334 4.23668 5.7 4.93002 5.22C5.62335 4.74 6.39668 4.5 7.25002 4.5C8.10335 4.5 8.89002 4.74 9.61002 5.22C10.33 5.7 10.8767 6.31334 11.25 7.06C11.6234 7.80667 11.81 8.60667 11.81 9.46C11.81 9.72667 11.9034 9.96667 12.09 10.18C12.2767 10.3933 12.5034 10.5 12.77 10.5C13.0367 10.5 13.2634 10.3933 13.45 10.18C13.6367 9.96667 13.7567 9.72667 13.81 9.46C13.7567 8.60667 13.9167 7.80667 14.29 7.06C14.6634 6.31334 15.21 5.7 15.93 5.22C16.65 4.74 17.4367 4.5 18.29 4.5C19.1434 4.5 19.9167 4.74 20.61 5.22C21.3034 5.7 21.85 6.31334 22.25 7.06C22.65 7.80667 22.8233 8.60667 22.77 9.46C22.77 10.9 22.0634 12.62 20.65 14.62C19.2367 16.62 17.25 18.6867 14.69 20.82Z" fill="#4B5966"/>
        </g>
        <defs>
            <clipPath id="clip0_1_830">
                <rect width="24" height="24" fill="white" transform="matrix(1 0 0 -1 0.77002 24.5)"/>
            </clipPath>
        </defs>
    </symbol>
    <symbol id="loginicon" viewBox="0 0 19 25">
        <path d="M9.08993 12.5C10.1566 12.5 11.1566 12.2333 12.0899 11.7C13.0233 11.1667 13.7566 10.4333 14.2899 9.5C14.8233 8.56667 15.0899 7.56667 15.0899 6.5C15.0899 5.43333 14.8233 4.43333 14.2899 3.5C13.7566 2.56667 13.0233 1.83333 12.0899 1.3C11.1566 0.766666 10.1566 0.5 9.08993 0.5C8.02326 0.5 7.02326 0.766666 6.08993 1.3C5.15659 1.83333 4.42326 2.56667 3.88993 3.5C3.35659 4.43333 3.08993 5.43333 3.08993 6.5C3.08993 7.56667 3.35659 8.56667 3.88993 9.5C4.42326 10.4333 5.15659 11.1667 6.08993 11.7C7.02326 12.2333 8.02326 12.5 9.08993 12.5ZM9.08993 2.5C10.2099 2.5 11.1566 2.88667 11.9299 3.66C12.7033 4.43333 13.0899 5.38 13.0899 6.5C13.0899 7.62 12.7033 8.56667 11.9299 9.34C11.1566 10.1133 10.2099 10.5 9.08993 10.5C7.96993 10.5 7.02326 10.1133 6.24993 9.34C5.47659 8.56667 5.08993 7.62 5.08993 6.5C5.08993 5.38 5.47659 4.43333 6.24993 3.66C7.02326 2.88667 7.96993 2.5 9.08993 2.5ZM9.08993 14.5C7.43659 14.5 5.92993 14.9 4.56993 15.7C3.20993 16.5 2.12993 17.5933 1.32993 18.98C0.529927 20.3667 0.10326 21.8867 0.0499268 23.54C0.10326 23.8067 0.22326 24.0333 0.409927 24.22C0.596593 24.4067 0.82326 24.5 1.08993 24.5C1.35659 24.5 1.58326 24.4067 1.76993 24.22C1.95659 24.0333 2.04993 23.8067 2.04993 23.54C2.10326 22.26 2.43659 21.0867 3.04993 20.02C3.66326 18.9533 4.50326 18.1 5.56993 17.46C6.63659 16.82 7.80993 16.5 9.08993 16.5C10.3699 16.5 11.5433 16.82 12.6099 17.46C13.6766 18.1 14.5299 18.9533 15.1699 20.02C15.8099 21.0867 16.1299 22.26 16.1299 23.54C16.1299 23.8067 16.2233 24.0333 16.4099 24.22C16.5966 24.4067 16.8233 24.5 17.0899 24.5C17.3566 24.5 17.5966 24.4067 17.8099 24.22C18.0233 24.0333 18.1299 23.8067 18.1299 23.54C18.0766 21.8867 17.6499 20.3667 16.8499 18.98C16.0499 17.5933 14.9699 16.5 13.6099 15.7C12.2499 14.9 10.7433 14.5 9.08993 14.5Z" fill="#4B5966"/>
    </symbol>
    <symbol id="appleicon" viewBox="0 0 40 40">
        <path d="M33.59 8.13333C34.8345 6.88889 35.8122 5.37778 36.5234 3.6C36.79 2.8 36.7234 2.04444 36.3234 1.33333C35.9234 0.622219 35.3011 0.177776 34.4567 -3.8147e-06C33.6122 -0.17778 32.7456 -0.26667 31.8567 -0.26667C28.8345 -0.26667 26.2567 0.666664 24.1234 2.53333C22.6122 3.86666 21.3678 5.6 20.39 7.73333C19.8567 5.6 19.0122 3.86666 17.8567 2.53333C16.4345 0.84444 14.6567 -3.8147e-06 12.5234 -3.8147e-06C12.2567 -3.8147e-06 12.0567 0.0888863 11.9234 0.266666C11.79 0.444443 11.7234 0.644444 11.7234 0.866665C11.7234 1.08889 11.79 1.28889 11.9234 1.46666C12.0567 1.64444 12.2567 1.73333 12.5234 1.73333C14.4789 1.64444 16.0789 2.62222 17.3234 4.66666C18.1234 5.91111 18.7011 7.42222 19.0567 9.2C17.1011 7.51111 14.79 6.66666 12.1234 6.66666C9.90113 6.66666 7.87891 7.22222 6.05669 8.33333C4.23447 9.44444 2.7678 10.9333 1.65669 12.8C0.545576 14.6667 -0.00997925 16.7111 -0.00997925 18.9333C-0.00997925 22.1333 0.701132 25.1556 2.12335 28C3.45669 30.4889 5.23447 32.6667 7.45669 34.5333C9.41224 36.3111 11.5456 37.6667 13.8567 38.6C16.1678 39.5333 18.2122 40 19.99 40C21.7678 40 23.8122 39.5333 26.1234 38.6C28.4345 37.6667 30.5678 36.3111 32.5234 34.5333C34.7456 32.6667 36.5234 30.4889 37.8567 28C39.2789 25.1556 39.99 22.1333 39.99 18.9333C39.99 16.7111 39.4122 14.6222 38.2567 12.6667C37.1011 10.7111 35.5456 9.2 33.59 8.13333ZM31.8567 1.33333C32.6567 1.33333 33.4567 1.42222 34.2567 1.6C34.5234 1.68889 34.7234 1.86666 34.8567 2.13333C34.99 2.4 35.0122 2.66666 34.9234 2.93333C33.0567 8.17778 28.5234 10.4889 21.3234 9.86666C21.9456 7.91111 22.8789 6.22222 24.1234 4.8C26.0789 2.48889 28.6567 1.33333 31.8567 1.33333ZM19.99 38.4C18.4789 38.4 16.7456 37.9556 14.79 37.0667C12.6567 36.1778 10.6567 34.9778 8.79002 33.4667C6.65669 31.6889 4.9678 29.6444 3.72335 27.3333C2.39002 24.7556 1.72335 21.9556 1.72335 18.9333C1.72335 16.9778 2.19002 15.2 3.12335 13.6C4.05669 12 5.32335 10.7333 6.92335 9.8C8.52335 8.86666 10.2567 8.4 12.1234 8.4C13.99 8.4 15.6345 8.84444 17.0567 9.73333C18.4789 10.6222 19.59 11.9111 20.39 13.6C21.19 15.2889 21.59 17.1556 21.59 19.2C21.6789 21.6 21.19 24.1778 20.1234 26.9333C19.5011 28.5333 18.9234 29.6889 18.39 30.4C18.3011 30.5778 18.2789 30.7778 18.3234 31C18.3678 31.2222 18.5011 31.4 18.7234 31.5333C18.9456 31.6667 19.1678 31.7111 19.39 31.6667C19.6122 31.6222 19.7678 31.4667 19.8567 31.2C20.4789 30.2222 21.0567 28.9778 21.59 27.4667C22.7456 24.5333 23.3234 21.7778 23.3234 19.2C23.3234 16.2667 22.6122 13.7333 21.19 11.6C21.99 11.6889 22.7456 11.7333 23.4567 11.7333C27.0122 11.7333 29.9456 10.9333 32.2567 9.33333C34.1234 10.2222 35.59 11.5333 36.6567 13.2667C37.7234 15 38.2567 16.8889 38.2567 18.9333C38.2567 21.9556 37.59 24.7556 36.2567 27.3333C35.0122 29.6444 33.3234 31.6889 31.19 33.4667C29.3234 34.9778 27.3234 36.1778 25.19 37.0667C23.2345 37.9556 21.5011 38.4 19.99 38.4Z" fill="#5CAF90"/>
    </symbol>
    <symbol id="carticon" viewBox="0 0 25 25">
        <path d="M21.42 6.5H18.38C18.38 5.43333 18.1133 4.43333 17.58 3.5C17.0467 2.56667 16.3133 1.83333 15.38 1.3C14.4467 0.766666 13.4467 0.5 12.38 0.5C11.3133 0.5 10.3133 0.766666 9.38 1.3C8.44667 1.83333 7.71334 2.56667 7.18 3.5C6.64667 4.43333 6.38 5.43333 6.38 6.5H3.42C2.56667 6.5 1.84667 6.79333 1.26 7.38C0.673338 7.96667 0.380005 8.68667 0.380005 9.54V19.46C0.380005 20.3667 0.606672 21.2067 1.06 21.98C1.51334 22.7533 2.12667 23.3667 2.9 23.82C3.67334 24.2733 4.48667 24.5 5.34 24.5H19.42C20.2733 24.5 21.0867 24.2733 21.86 23.82C22.6333 23.3667 23.2467 22.7533 23.7 21.98C24.1533 21.2067 24.38 20.3933 24.38 19.54V9.46C24.38 8.66 24.0867 7.96667 23.5 7.38C22.9133 6.79333 22.1933 6.5 21.34 6.5H21.42ZM12.38 2.5C13.5 2.5 14.4467 2.88667 15.22 3.66C15.9933 4.43333 16.38 5.38 16.38 6.5H8.38C8.38 5.38 8.76667 4.43333 9.54 3.66C10.3133 2.88667 11.26 2.5 12.38 2.5ZM22.38 19.46C22.38 20.3133 22.0867 21.0333 21.5 21.62C20.9133 22.2067 20.1933 22.5 19.34 22.5H5.42C4.56667 22.5 3.84667 22.2067 3.26 21.62C2.67334 21.0333 2.38 20.34 2.38 19.54V9.46C2.38 9.19333 2.47334 8.96667 2.66 8.78C2.84667 8.59333 3.07334 8.5 3.34 8.5H6.38V10.5C6.38 10.7667 6.47334 11.0067 6.66 11.22C6.84667 11.4333 7.08667 11.5267 7.38 11.5C7.67334 11.4733 7.91334 11.3667 8.1 11.18C8.28667 10.9933 8.38 10.7667 8.38 10.5V8.5H16.38V10.5C16.38 10.7667 16.4733 11.0067 16.66 11.22C16.8467 11.4333 17.0867 11.5267 17.38 11.5C17.6733 11.4733 17.9133 11.3667 18.1 11.18C18.2867 10.9933 18.38 10.7667 18.38 10.5V8.5H21.42C21.6867 8.5 21.9133 8.59333 22.1 8.78C22.2867 8.96667 22.38 9.19333 22.38 9.46V19.46Z" fill="#4B5966"/>
    </symbol>
    <symbol id="phoneicon" viewBox="0 0 16 15">
        <path d="M8.31501 0.599999C8.31501 0.433333 8.37334 0.291666 8.49001 0.174999C8.60667 0.0583326 8.74834 -9.53674e-07 8.91501 -9.53674e-07C10.0483 -9.53674e-07 11.09 0.283333 12.04 0.849999C12.99 1.41667 13.7483 2.175 14.315 3.125C14.8817 4.075 15.165 5.11667 15.165 6.25C15.165 6.41667 15.1067 6.56667 14.99 6.7C14.8733 6.83333 14.7233 6.89167 14.54 6.875C14.3567 6.85833 14.2067 6.79167 14.09 6.675C13.9733 6.55833 13.915 6.41667 13.915 6.25C13.915 5.35 13.69 4.51667 13.24 3.75C12.79 2.98333 12.1817 2.375 11.415 1.925C10.6483 1.475 9.81501 1.25 8.91501 1.25C8.74834 1.25 8.60667 1.19167 8.49001 1.075C8.37334 0.958333 8.31501 0.816666 8.31501 0.65V0.599999ZM8.91501 3.75C9.61501 3.75 10.2067 3.99167 10.69 4.475C11.1733 4.95833 11.415 5.55 11.415 6.25C11.415 6.41667 11.4733 6.56667 11.59 6.7C11.7067 6.83333 11.8567 6.89167 12.04 6.875C12.2233 6.85833 12.3733 6.79167 12.49 6.675C12.6067 6.55833 12.665 6.41667 12.665 6.25C12.665 5.58333 12.4983 4.95833 12.165 4.375C11.8317 3.79167 11.3733 3.33333 10.79 3C10.2067 2.66667 9.58167 2.5 8.91501 2.5C8.74834 2.5 8.60667 2.55833 8.49001 2.675C8.37334 2.79167 8.31501 2.94167 8.31501 3.125C8.31501 3.30833 8.37334 3.45833 8.49001 3.575C8.60667 3.69167 8.74834 3.75 8.91501 3.75ZM14.615 10.45C14.9817 10.85 15.165 11.3167 15.165 11.85C15.165 12.3833 14.9817 12.8333 14.615 13.2L14.015 13.85C13.0483 14.7833 11.7983 15.1333 10.265 14.9C8.89834 14.7 7.46501 14.0667 5.96501 13C4.49834 11.9667 3.24834 10.7167 2.21501 9.25C1.11501 7.75 0.465006 6.31667 0.265006 4.95C0.0316729 3.41667 0.365006 2.15 1.26501 1.15L2.01501 0.549999C2.38167 0.183333 2.83167 -9.53674e-07 3.36501 -9.53674e-07C3.89834 -9.53674e-07 4.34834 0.183333 4.71501 0.549999L5.86501 2.1C6.23167 2.46667 6.41501 2.90833 6.41501 3.425C6.41501 3.94167 6.23167 4.38333 5.86501 4.75L5.16501 5.7C5.56501 6.66667 6.14001 7.525 6.89001 8.275C7.64001 9.025 8.49834 9.6 9.46501 10L10.415 9.3C10.7817 8.93333 11.2233 8.75 11.74 8.75C12.2567 8.75 12.6983 8.93333 13.065 9.3L14.615 10.45ZM13.715 11.35C13.215 10.9833 12.715 10.6 12.215 10.2C12.0817 10.0667 11.9233 10 11.74 10C11.5567 10 11.3983 10.0667 11.265 10.2L9.96501 11.2C9.79834 11.3667 9.59834 11.4 9.36501 11.3C8.09834 10.8333 6.98167 10.1167 6.01501 9.15C5.04834 8.18333 4.33167 7.06667 3.86501 5.8C3.76501 5.56667 3.79834 5.36667 3.96501 5.2L4.96501 3.9C5.09834 3.76667 5.16501 3.60833 5.16501 3.425C5.16501 3.24167 5.09834 3.08333 4.96501 2.95L3.81501 1.45C3.68167 1.31667 3.52334 1.25 3.34001 1.25C3.15667 1.25 2.99834 1.31667 2.86501 1.45L2.11501 2.1C1.44834 2.9 1.26501 3.93333 1.56501 5.2C1.83167 6.33333 2.44834 7.51667 3.41501 8.75C4.31501 9.95 5.39001 11 6.64001 11.9C7.89001 12.8 9.08167 13.3667 10.215 13.6C11.4483 13.8667 12.415 13.6667 13.115 13L13.665 12.35C13.8317 12.2167 13.915 12.0583 13.915 11.875C13.915 11.6917 13.8483 11.5167 13.715 11.35Z" fill="#777777"/>
    </symbol>
    <symbol id="grapesicon" viewBox="0 0 15 18">
        <path d="M14.7484 7.97335C14.7484 7.3689 14.5784 6.83057 14.2384 6.35835C13.8984 5.88613 13.4545 5.54613 12.9068 5.33835C12.359 5.13057 11.8018 5.09279 11.2351 5.22501C10.6684 5.35724 10.1773 5.65001 9.76177 6.10335C9.42177 5.68779 8.96843 5.40446 8.40177 5.25335C8.47732 4.38446 8.6851 3.70446 9.0251 3.21335C9.28955 2.83557 9.61066 2.57113 9.98843 2.42001C10.1773 2.34446 10.3568 2.30668 10.5268 2.30668C10.6968 2.30668 10.8573 2.37279 11.0084 2.50501C11.1595 2.63724 11.2351 2.79779 11.2351 2.98668V4.40335C11.6129 4.40335 11.934 4.27112 12.1984 4.00668C12.4629 3.74224 12.5951 3.40224 12.5951 2.98668C12.5951 2.42001 12.3968 1.9289 12.0001 1.51335C11.6034 1.09779 11.1029 0.89946 10.4984 0.918348C9.89399 0.937237 9.34621 1.10723 8.8551 1.42835C8.36399 1.74946 7.96732 2.17446 7.6651 2.70335C7.24955 1.91001 6.6451 1.32446 5.85177 0.94668L5.22843 2.25001C6.24843 2.74113 6.8151 3.74224 6.92843 5.25335C6.39955 5.40446 5.92732 5.68779 5.51177 6.10335C5.13399 5.65001 4.64288 5.35724 4.03843 5.22501C3.43399 5.09279 2.84843 5.14946 2.28177 5.39501C1.7151 5.64057 1.28066 6.02779 0.978434 6.55668C0.676212 7.08557 0.553434 7.65224 0.610101 8.25668C0.666767 8.86113 0.902879 9.39001 1.31843 9.84335C1.73399 10.2967 2.2251 10.5989 2.79177 10.75C2.75399 11.0145 2.7351 11.26 2.7351 11.4867C2.7351 12.1667 2.94288 12.7711 3.35843 13.3C3.77399 13.8289 4.30288 14.15 4.9451 14.2633C4.86954 14.5278 4.83177 14.7922 4.83177 15.0567C4.83177 15.85 5.10566 16.5206 5.65343 17.0683C6.20121 17.6161 6.87177 17.89 7.6651 17.89C8.45843 17.89 9.12899 17.6161 9.67677 17.0683C10.2245 16.5206 10.4984 15.85 10.4984 15.0567C10.4984 14.7922 10.4607 14.5278 10.3851 14.2633C11.0273 14.15 11.5562 13.8289 11.9718 13.3C12.3873 12.7711 12.5951 12.1856 12.5951 11.5433C12.5951 11.2789 12.5762 11.0145 12.5384 10.75C13.1807 10.5989 13.7095 10.2683 14.1251 9.75835C14.5407 9.24835 14.7484 8.65335 14.7484 7.97335ZM7.6651 6.55668C8.04288 6.55668 8.37343 6.69835 8.65677 6.98168C8.9401 7.26501 9.08177 7.59557 9.08177 7.97335C9.08177 8.35113 8.9401 8.68168 8.65677 8.96501C8.37343 9.24835 8.04288 9.39001 7.6651 9.39001C7.28732 9.39001 6.95677 9.24835 6.67343 8.96501C6.3901 8.68168 6.24843 8.35113 6.24843 7.97335C6.24843 7.59557 6.3901 7.26501 6.67343 6.98168C6.95677 6.69835 7.28732 6.55668 7.6651 6.55668ZM1.99843 7.97335C1.99843 7.59557 2.1401 7.26501 2.42343 6.98168C2.70677 6.69835 3.03732 6.55668 3.4151 6.55668C3.79288 6.55668 4.12343 6.69835 4.40677 6.98168C4.6901 7.26501 4.83177 7.59557 4.83177 7.97335C4.83177 8.35113 4.6901 8.68168 4.40677 8.96501C4.12343 9.24835 3.79288 9.39001 3.4151 9.39001C3.03732 9.39001 2.70677 9.24835 2.42343 8.96501C2.1401 8.68168 1.99843 8.35113 1.99843 7.97335ZM4.15177 11.4867C4.15177 11.1467 4.2651 10.8445 4.49177 10.58C4.90732 10.4289 5.24732 10.1833 5.51177 9.84335C5.81399 10.1833 6.17288 10.4289 6.58843 10.58C6.8151 10.8445 6.93788 11.1278 6.95677 11.43C6.97566 11.7322 6.9001 12.0156 6.7301 12.28C6.5601 12.5445 6.32399 12.7333 6.02177 12.8467C5.71955 12.96 5.41732 12.9695 5.1151 12.875C4.81288 12.7806 4.56732 12.6106 4.37843 12.365C4.18955 12.1195 4.11399 11.8456 4.15177 11.5433V11.4867ZM7.6651 16.4733C7.40066 16.4733 7.14566 16.3978 6.9001 16.2467C6.65455 16.0956 6.4751 15.8972 6.36177 15.6517C6.24843 15.4061 6.21066 15.1417 6.24843 14.8583C6.28621 14.575 6.39955 14.3389 6.58843 14.15C7.00399 13.9989 7.36288 13.7533 7.6651 13.4133C7.96732 13.7533 8.32621 13.9989 8.74177 14.15C8.93066 14.3389 9.04399 14.575 9.08177 14.8583C9.11955 15.1417 9.08177 15.4061 8.96843 15.6517C8.8551 15.8972 8.67566 16.0956 8.4301 16.2467C8.18455 16.3978 7.92954 16.4733 7.6651 16.4733ZM9.81843 12.9033C9.51621 12.9411 9.25177 12.8845 9.0251 12.7333C8.79844 12.5822 8.62844 12.3745 8.5151 12.11C8.40177 11.8456 8.36399 11.5811 8.40177 11.3167C8.43955 11.0522 8.55288 10.8067 8.74177 10.58C9.15732 10.4289 9.51621 10.1833 9.81843 9.84335C10.0829 10.1833 10.4229 10.4289 10.8384 10.58C11.0273 10.8067 11.1407 11.0522 11.1784 11.3167C11.2162 11.5811 11.1784 11.8456 11.0651 12.11C10.9518 12.3745 10.7818 12.5822 10.5551 12.7333C10.3284 12.8845 10.0829 12.9411 9.81843 12.9033ZM11.9151 9.39001C11.5373 9.39001 11.2068 9.24835 10.9234 8.96501C10.6401 8.68168 10.4984 8.35113 10.4984 7.97335C10.4984 7.59557 10.6401 7.26501 10.9234 6.98168C11.2068 6.69835 11.5373 6.55668 11.9151 6.55668C12.2929 6.55668 12.6234 6.69835 12.9068 6.98168C13.1901 7.26501 13.3318 7.59557 13.3318 7.97335C13.3318 8.35113 13.1901 8.68168 12.9068 8.96501C12.6234 9.24835 12.2929 9.39001 11.9151 9.39001Z" fill="#777777"/>
    </symbol>
    <symbol id="cookiesicon" viewBox="0 0 18 18">
        <path d="M5.83171 7.63335C5.83171 7.93557 5.9356 8.19057 6.14337 8.39835C6.35115 8.60613 6.60615 8.70057 6.90837 8.68168C7.21059 8.66279 7.45615 8.5589 7.64504 8.37001C7.83393 8.18113 7.93782 7.93557 7.95671 7.63335C7.97559 7.33113 7.88115 7.07613 7.67337 6.86835C7.46559 6.66057 7.21059 6.55668 6.90837 6.55668C6.60615 6.55668 6.35115 6.66057 6.14337 6.86835C5.9356 7.07613 5.83171 7.33113 5.83171 7.63335ZM12.235 1.96668C12.235 2.2689 12.3295 2.5239 12.5184 2.73168C12.7073 2.93946 12.9528 3.0339 13.255 3.01501C13.5573 2.99613 13.8123 2.89224 14.02 2.70335C14.2278 2.51446 14.3317 2.2689 14.3317 1.96668C14.3317 1.66446 14.2278 1.40946 14.02 1.20168C13.8123 0.993902 13.5573 0.890015 13.255 0.890015C12.9528 0.890015 12.6978 0.993902 12.49 1.20168C12.2823 1.40946 12.1784 1.66446 12.1784 1.96668H12.235ZM14.3317 5.48001C14.3317 5.78224 14.4356 6.03724 14.6434 6.24501C14.8512 6.45279 15.1062 6.55668 15.4084 6.55668C15.7106 6.55668 15.9656 6.45279 16.1734 6.24501C16.3812 6.03724 16.4756 5.78224 16.4567 5.48001C16.4378 5.17779 16.3339 4.92279 16.145 4.71501C15.9562 4.50724 15.7106 4.41279 15.4084 4.43168C15.1062 4.45057 14.8512 4.55446 14.6434 4.74335C14.4356 4.93224 14.3317 5.17779 14.3317 5.48001ZM5.83171 11.1467C5.83171 11.4489 5.9356 11.7039 6.14337 11.9117C6.35115 12.1195 6.60615 12.2233 6.90837 12.2233C7.21059 12.2233 7.45615 12.1195 7.64504 11.9117C7.83393 11.7039 7.93782 11.4489 7.95671 11.1467C7.97559 10.8445 7.88115 10.5989 7.67337 10.41C7.46559 10.2211 7.21059 10.1172 6.90837 10.0983C6.60615 10.0795 6.35115 10.1739 6.14337 10.3817C5.9356 10.5895 5.83171 10.8445 5.83171 11.1467ZM9.40171 11.1467C9.40171 11.4489 9.49615 11.7039 9.68504 11.9117C9.87393 12.1195 10.1195 12.2233 10.4217 12.2233C10.7239 12.2233 10.9789 12.1195 11.1867 11.9117C11.3945 11.7039 11.4984 11.4489 11.4984 11.1467C11.4984 10.8445 11.3945 10.5989 11.1867 10.41C10.9789 10.2211 10.7239 10.1172 10.4217 10.0983C10.1195 10.0795 9.86448 10.1739 9.65671 10.3817C9.44893 10.5895 9.34504 10.8445 9.34504 11.1467H9.40171ZM8.66504 17.89C7.11615 17.89 5.69004 17.5122 4.38671 16.7567C3.08337 16.0011 2.05393 14.9717 1.29837 13.6683C0.542817 12.365 0.165039 10.9389 0.165039 9.39001C0.165039 7.84113 0.542817 6.41501 1.29837 5.11168C2.05393 3.80835 3.08337 2.7789 4.38671 2.02335C5.69004 1.26779 7.11615 0.890015 8.66504 0.890015C8.92948 0.890015 9.19393 0.908903 9.45837 0.94668L10.0817 1.00335L10.1384 1.57001C10.2139 2.66557 10.5445 3.68557 11.13 4.63001C11.7156 5.57446 12.4806 6.33946 13.425 6.92501C14.3695 7.51057 15.3895 7.84113 16.485 7.91668L17.0517 7.97335L17.1084 8.59668C17.1462 8.86112 17.165 9.12557 17.165 9.39001C17.165 10.9389 16.7873 12.365 16.0317 13.6683C15.2762 14.9717 14.2467 16.0011 12.9434 16.7567C11.64 17.5122 10.2139 17.89 8.66504 17.89ZM8.66504 2.30668C7.38059 2.30668 6.20004 2.62779 5.12337 3.27001C4.04671 3.91224 3.18726 4.77168 2.54504 5.84835C1.90282 6.92501 1.58171 8.10557 1.58171 9.39001C1.58171 10.6745 1.90282 11.855 2.54504 12.9317C3.18726 14.0083 4.04671 14.8678 5.12337 15.51C6.20004 16.1522 7.38059 16.4733 8.66504 16.4733C9.94948 16.4733 11.13 16.1522 12.2067 15.51C13.2834 14.8678 14.1428 14.0083 14.785 12.9317C15.4273 11.855 15.7484 10.6745 15.7484 9.39001V9.27668C14.5773 9.08779 13.5006 8.66279 12.5184 8.00168C11.5362 7.34057 10.7145 6.5189 10.0534 5.53668C9.39226 4.55446 8.96726 3.47779 8.77837 2.30668H8.66504Z" fill="#777777"/>
    </symbol>
    <symbol id="foodicon" viewBox="0 0 18 18">
        <path d="M17.165 10.8067C17.165 10.1645 16.9195 9.63557 16.4284 9.22001V7.23668C16.4284 6.10335 16.145 5.04557 15.5784 4.06335C15.0117 3.08113 14.2467 2.30668 13.2834 1.74002C12.32 1.17335 11.2528 0.890015 10.0817 0.890015H7.24837C6.07726 0.890015 5.01004 1.17335 4.04671 1.74002C3.08337 2.30668 2.31837 3.08113 1.75171 4.06335C1.18504 5.04557 0.901706 6.12224 0.901706 7.29335V9.22001C0.410595 9.63557 0.165039 10.1645 0.165039 10.8067V10.92C0.165039 11.5622 0.410595 12.0911 0.901706 12.5067V15.0567C0.901706 15.85 1.17559 16.5206 1.72337 17.0683C2.27115 17.6161 2.92282 17.89 3.67837 17.89H13.6517C14.4073 17.89 15.0684 17.6161 15.635 17.0683C16.2017 16.5206 16.485 15.85 16.485 15.0567V12.3933C16.9384 11.9778 17.165 11.4489 17.165 10.8067ZM2.31837 7.23668C2.31837 6.36779 2.53559 5.55557 2.97004 4.80001C3.40448 4.04446 3.99948 3.44001 4.75504 2.98668C5.51059 2.53335 6.34171 2.30668 7.24837 2.30668H10.0817C10.9884 2.30668 11.8195 2.53335 12.575 2.98668C13.3306 3.44001 13.9256 4.04446 14.36 4.80001C14.7945 5.55557 15.0117 6.38668 15.0117 7.29335V8.71001H2.31837V7.23668ZM15.0684 11.5433H12.235C11.2906 11.5433 10.3745 11.7039 9.48671 12.025C8.59893 12.3461 7.79615 12.8089 7.07837 13.4133C6.92726 13.5645 6.74782 13.64 6.54004 13.64C6.33226 13.64 6.15282 13.5645 6.00171 13.4133C4.86837 12.4689 3.58393 11.8645 2.14837 11.6C1.95948 11.5622 1.81782 11.4867 1.72337 11.3733C1.62893 11.26 1.58171 11.1089 1.58171 10.92V10.8067C1.58171 10.6178 1.64782 10.4572 1.78004 10.325C1.91226 10.1928 2.07282 10.1267 2.26171 10.1267H15.0684C15.2573 10.1267 15.4178 10.1928 15.55 10.325C15.6823 10.4572 15.7484 10.6178 15.7484 10.8067C15.7484 10.9956 15.6823 11.1656 15.55 11.3167C15.4178 11.4678 15.2573 11.5433 15.0684 11.5433ZM15.0684 15.0567C15.0306 15.4345 14.8795 15.765 14.615 16.0483C14.3506 16.3317 14.0106 16.4733 13.595 16.4733H3.73504C3.31948 16.4733 2.97948 16.3317 2.71504 16.0483C2.45059 15.765 2.31837 15.4345 2.31837 15.0567V13.13C3.33837 13.3567 4.24504 13.81 5.03837 14.49C5.49171 14.8678 5.99226 15.0567 6.54004 15.0567C7.08782 15.0567 7.58837 14.8678 8.04171 14.49C8.60837 13.9989 9.2506 13.6211 9.96837 13.3567C10.6862 13.0922 11.4417 12.96 12.235 12.96H15.0684V15.0567ZM7.98504 4.40335C7.98504 4.63001 7.90948 4.80946 7.75837 4.94168C7.60726 5.0739 7.43726 5.14001 7.24837 5.14001C7.05948 5.14001 6.89893 5.0739 6.76671 4.94168C6.63448 4.80946 6.56837 4.63946 6.56837 4.43168C6.56837 4.2239 6.63448 4.0539 6.76671 3.92168C6.89893 3.78946 7.05948 3.72335 7.24837 3.72335C7.43726 3.72335 7.60726 3.78946 7.75837 3.92168C7.90948 4.0539 7.98504 4.21446 7.98504 4.40335ZM5.83171 6.55668C5.83171 6.74557 5.76559 6.90613 5.63337 7.03835C5.50115 7.17057 5.33115 7.24613 5.12337 7.26501C4.91559 7.2839 4.74559 7.21779 4.61337 7.06668C4.48115 6.91557 4.41504 6.74557 4.41504 6.55668C4.41504 6.36779 4.48115 6.19779 4.61337 6.04668C4.74559 5.89557 4.91559 5.82001 5.12337 5.82001C5.33115 5.82001 5.50115 5.89557 5.63337 6.04668C5.76559 6.19779 5.83171 6.36779 5.83171 6.55668Z" fill="#777777"/>
    </symbol>
    <symbol id="fruiticon" viewBox="0 0 18 18">
        <g clip-path="url(#clip0_1_3133)">
        <path d="M12.4051 5.25333C12.8206 4.76222 13.1417 4.19556 13.3684 3.55333C13.5951 2.91111 13.6706 2.25 13.5951 1.57V0.946667L12.9717 0.890001C12.2917 0.852222 11.6306 0.937223 10.9884 1.145C10.3462 1.35278 9.76061 1.68333 9.23172 2.13667C9.08061 2.28778 8.94839 2.45778 8.83505 2.64667C8.64616 2.04222 8.40061 1.47556 8.09839 0.946667L6.85172 1.62667C7.45616 2.72222 7.81505 3.89333 7.92839 5.14H6.17172C5.07616 5.17778 4.05616 5.48944 3.11172 6.075C2.16727 6.66056 1.43061 7.435 0.901719 8.39833C0.37283 9.36167 0.11783 10.3911 0.136719 11.4867C0.155608 12.5822 0.410608 13.6022 0.901719 14.5467C1.39283 15.4911 2.06339 16.2561 2.91339 16.8417C3.76339 17.4272 4.69839 17.7767 5.71839 17.89C6.73839 18.0033 7.72061 17.8144 8.66505 17.3233C9.6095 17.8144 10.5917 18.0033 11.6117 17.89C12.6317 17.7767 13.5667 17.4272 14.4167 16.8417C15.2667 16.2561 15.9373 15.4911 16.4284 14.5467C16.9195 13.6022 17.1651 12.5822 17.1651 11.4867C17.1651 10.5422 16.9667 9.63556 16.5701 8.76667C16.1734 7.89778 15.6067 7.16111 14.8701 6.55667C14.1334 5.95222 13.3117 5.51778 12.4051 5.25333ZM10.2517 3.15667C10.7806 2.66556 11.4228 2.40111 12.1784 2.36333C12.1406 3.08111 11.8762 3.72333 11.3851 4.29C10.8184 4.78111 10.1573 5.04556 9.40172 5.08333C9.47727 4.36556 9.76061 3.72333 10.2517 3.15667ZM11.1584 16.4733C10.4028 16.4733 9.68505 16.2844 9.00505 15.9067L8.66505 15.7367L8.32505 15.9067C7.34283 16.4733 6.31339 16.6244 5.23672 16.36C4.16005 16.0956 3.27227 15.51 2.57339 14.6033C1.8745 13.6967 1.54394 12.6578 1.58172 11.4867C1.54394 10.6556 1.72339 9.86222 2.12005 9.10667C2.51672 8.35111 3.07394 7.74667 3.79172 7.29333C4.5095 6.84 5.30283 6.59445 6.17172 6.55667H11.1584C12.2917 6.59445 13.2551 6.95333 14.0484 7.63333C14.7662 8.27556 15.2573 9.08778 15.5217 10.07C15.7862 11.0522 15.7862 12.025 15.5217 12.9883C15.2573 13.9517 14.7662 14.7544 14.0484 15.3967C13.2551 16.0767 12.2917 16.4356 11.1584 16.4733Z" fill="#777777"/>
        </g>
        <defs>
        <clipPath id="clip0_1_3133">
        <rect width="17.33" height="17" fill="white" transform="matrix(1 0 0 -1 0 17.89)"/>
        </clipPath>
        </defs>
    </symbol>
    <symbol id="tubericon" viewBox="0 0 17 18">
        <path d="M15.5785 7.97335C14.8985 8.16224 14.2563 8.40779 13.6519 8.71001C13.5763 7.35001 13.293 6.06557 12.8019 4.85668C12.3107 3.64779 11.6969 2.68446 10.9602 1.96668C10.2235 1.2489 9.45852 0.890015 8.66519 0.890015C7.87186 0.890015 7.10686 1.2489 6.37019 1.96668C5.63352 2.68446 5.01963 3.64779 4.52852 4.85668C4.03741 6.06557 3.77297 7.35001 3.73519 8.71001C3.09297 8.40779 2.43186 8.16224 1.75186 7.97335L0.901855 7.74668V8.65335C0.901855 10.7689 1.31741 12.5633 2.14852 14.0367C2.82852 15.2456 3.77297 16.19 4.98186 16.87C5.96408 17.4367 7.00297 17.7767 8.09852 17.89H8.66519H9.23186C10.3274 17.7767 11.3663 17.4367 12.3485 16.87C13.5574 16.19 14.5019 15.2456 15.1819 14.0367C16.0507 12.5633 16.4852 10.7689 16.4852 8.65335V7.74668L15.5785 7.97335ZM2.31852 9.67335C3.3763 10.0889 4.30186 10.7122 5.09519 11.5433L5.15186 11.4867C6.47408 12.9222 7.39963 14.5656 7.92852 16.4167C7.09741 16.3033 6.32297 16.02 5.60519 15.5667C4.7363 15.0378 4.01852 14.3389 3.45186 13.47C2.80963 12.4122 2.43186 11.1467 2.31852 9.67335ZM8.66519 14.32C8.24963 13.3 7.70186 12.3556 7.02186 11.4867H7.98519V10.07H5.71852L5.09519 9.61668L5.15186 8.71001H5.83186V7.23668H5.32186C5.39741 6.78335 5.52963 6.31113 5.71852 5.82001H7.98519V4.40335H6.28519C6.66297 3.76113 7.05963 3.25113 7.47519 2.87335C7.89074 2.49557 8.28741 2.30668 8.66519 2.30668C9.04297 2.30668 9.43963 2.49557 9.85519 2.87335C10.2707 3.25113 10.6674 3.76113 11.0452 4.40335H9.40186V5.82001H11.6685C11.8196 6.31113 11.933 6.78335 12.0085 7.23668H11.4985V8.65335H12.1785L12.2352 9.61668L11.6119 10.07H9.40186V11.4867H10.3085C9.62852 12.3556 9.08074 13.3 8.66519 14.32ZM9.40186 16.4167C9.93074 14.5656 10.8752 12.9222 12.2352 11.4867C13.0285 10.6933 13.9541 10.0889 15.0119 9.67335C14.8985 11.1467 14.5207 12.4122 13.8785 13.47C13.3119 14.3389 12.5941 15.0378 11.7252 15.5667C11.0074 16.02 10.233 16.3033 9.40186 16.4167ZM10.0819 8.65335H7.24852V7.23668H10.0819V8.65335Z" fill="#777777"/>
    </symbol>
    <symbol id="vegetableicon" viewBox="0 0 18 18">
        <path d="M12.0083 4.51668C12.575 3.87446 12.8772 3.13779 12.915 2.30668H11.4983C11.4228 2.87335 11.1867 3.34557 10.79 3.72335C10.3933 4.10113 9.93056 4.3089 9.40167 4.34668V0.890015H7.985V4.34668C7.41834 4.3089 6.93667 4.10113 6.54 3.72335C6.14334 3.34557 5.90723 2.87335 5.83167 2.30668H4.415C4.45278 3.13779 4.755 3.87446 5.32167 4.51668C4.33945 4.66779 3.45167 5.05501 2.65834 5.67835C1.865 6.30168 1.24167 7.05724 0.788337 7.94501C0.335004 8.83279 0.127226 9.78668 0.165004 10.8067C0.165004 11.94 0.429448 13.0545 0.958337 14.15C1.48723 15.2456 2.205 16.1333 3.11167 16.8133C4.05611 17.5311 5.07611 17.89 6.17167 17.89H11.1583C12.2539 17.89 13.2739 17.5311 14.2183 16.8133C15.125 16.1333 15.8428 15.2456 16.3717 14.15C16.9006 13.0545 17.165 11.94 17.165 10.8067C17.2028 9.78668 16.995 8.83279 16.5417 7.94501C16.0883 7.05724 15.465 6.30168 14.6717 5.67835C13.8783 5.05501 12.9906 4.66779 12.0083 4.51668ZM11.1583 16.4733H6.17167C5.34056 16.4733 4.57556 16.19 3.87667 15.6233C3.17778 15.0567 2.62056 14.3295 2.205 13.4417C1.78945 12.5539 1.57223 11.6756 1.55334 10.8067C1.53445 9.93779 1.72334 9.13501 2.12 8.39835C2.51667 7.66168 3.07389 7.05724 3.79167 6.58501C4.50945 6.11279 5.30278 5.85779 6.17167 5.82001C6.54945 5.82001 6.92723 5.87668 7.305 5.99001C6.625 6.63224 5.83167 7.06668 4.925 7.29335L5.32167 8.65335C6.68167 8.35113 7.79611 7.65224 8.665 6.55668C9.53389 7.65224 10.6483 8.35113 12.0083 8.65335L12.405 7.29335C11.4983 7.06668 10.705 6.63224 10.025 5.99001C10.4028 5.87668 10.7806 5.82001 11.1583 5.82001C12.0272 5.85779 12.8206 6.11279 13.5383 6.58501C14.2561 7.05724 14.8133 7.66168 15.21 8.39835C15.6067 9.13501 15.7956 9.93779 15.7767 10.8067C15.7578 11.6756 15.5406 12.5539 15.125 13.4417C14.7094 14.3295 14.1522 15.0567 13.4533 15.6233C12.7544 16.19 11.9894 16.4733 11.1583 16.4733Z" fill="#777777"/>
    </symbol>
    <symbol id="snackicon" viewBox="0 0 18 18">
        <path d="M7.98504 4.40335V5.82001C7.56948 5.82001 7.22948 5.96168 6.96504 6.24501C6.70059 6.52835 6.56837 6.87779 6.56837 7.29335H5.15171C5.15171 6.50001 5.42559 5.82001 5.97337 5.25335C6.52115 4.68668 7.17282 4.40335 7.92837 4.40335H7.98504ZM9.40171 5.82001V7.23668C9.77948 7.23668 10.1006 7.37835 10.365 7.66168C10.6295 7.94501 10.7617 8.29446 10.7617 8.71001H12.235C12.235 7.91668 11.9517 7.24613 11.385 6.69835C10.8184 6.15057 10.1384 5.87668 9.34504 5.87668L9.40171 5.82001ZM15.6917 10.4667L14.2184 17.89H3.11171L1.63837 10.4667C1.18504 10.2022 0.82615 9.85279 0.561706 9.41835C0.297261 8.9839 0.165039 8.51168 0.165039 8.00168C0.165039 7.49168 0.287817 7.01001 0.533372 6.55668C0.778928 6.10335 1.12837 5.76335 1.58171 5.53668C1.65726 4.89446 1.91226 4.34668 2.34671 3.89335C2.78115 3.44001 3.30059 3.15668 3.90504 3.04335C4.13171 2.55224 4.49059 2.17446 4.98171 1.91001C5.47282 1.64557 6.00171 1.55112 6.56837 1.62668C6.83282 1.32446 7.16337 1.11668 7.56004 1.00335C7.95671 0.890015 8.35337 0.861681 8.75004 0.918348C9.14671 0.975014 9.5056 1.12613 9.82671 1.37168C10.1478 1.61724 10.3839 1.9289 10.535 2.30668C11.215 2.34446 11.7817 2.6089 12.235 3.10001C12.4617 3.02446 12.6884 2.98668 12.915 2.98668C13.6328 3.02446 14.2562 3.27946 14.785 3.75168C15.3139 4.2239 15.635 4.8189 15.7484 5.53668C16.1639 5.76335 16.5039 6.10335 16.7684 6.55668C17.0328 7.01001 17.165 7.49168 17.165 8.00168C17.165 8.51168 17.0328 8.9839 16.7684 9.41835C16.5039 9.85279 16.145 10.2022 15.6917 10.4667ZM6.11504 16.4733L5.83171 12.2233C5.83171 11.8456 5.69004 11.515 5.40671 11.2317C5.12337 10.9483 4.79282 10.8067 4.41504 10.8067H3.16837L4.30171 16.4733H6.11504ZM9.68504 16.4733L10.0817 12.2233C10.0817 11.8078 9.94004 11.4678 9.65671 11.2033C9.37337 10.9389 9.03337 10.8067 8.63671 10.8067C8.24004 10.8067 7.90948 10.9483 7.64504 11.2317C7.38059 11.515 7.24837 11.8456 7.24837 12.2233L7.53171 16.4733H9.68504ZM14.1617 10.8067H12.915C12.5373 10.8067 12.2067 10.9483 11.9234 11.2317C11.64 11.515 11.4984 11.8456 11.4984 12.2233L11.1017 16.4733H13.0284L14.1617 10.8067ZM14.3317 9.39001C14.6717 9.39001 14.9739 9.27668 15.2384 9.05001C15.5028 8.82335 15.6634 8.54001 15.72 8.20001C15.7767 7.86001 15.72 7.54835 15.55 7.26501C15.38 6.98168 15.125 6.78335 14.785 6.67001L14.3317 6.50001V5.82001C14.3317 5.59335 14.275 5.37613 14.1617 5.16835C14.0484 4.96057 13.8878 4.79057 13.68 4.65835C13.4723 4.52612 13.2456 4.45057 13 4.43168C12.7545 4.41279 12.5184 4.46001 12.2917 4.57335L11.6684 4.85668L11.385 4.29001C11.2717 4.10113 11.13 3.95946 10.96 3.86501C10.79 3.77057 10.6106 3.72335 10.4217 3.72335L9.45837 3.89335L9.34504 3.15668C9.30726 2.96779 9.21282 2.78835 9.06171 2.61835C8.91059 2.44835 8.73115 2.34446 8.52337 2.30668C8.31559 2.2689 8.10782 2.29724 7.90004 2.39168C7.69226 2.48612 7.53171 2.62779 7.41837 2.81668L7.07837 3.32668L6.56837 3.10001C6.45504 3.06224 6.32282 3.02446 6.17171 2.98668C5.94504 2.98668 5.72782 3.07168 5.52004 3.24168C5.31226 3.41168 5.18948 3.61001 5.15171 3.83668L5.03837 4.40335H4.35837C3.98059 4.44112 3.65948 4.59224 3.39504 4.85668C3.13059 5.12113 2.99837 5.46113 2.99837 5.87668V6.50001L2.54504 6.67001C2.20504 6.78335 1.95004 6.98168 1.78004 7.26501C1.61004 7.54835 1.55337 7.86001 1.61004 8.20001C1.66671 8.54001 1.82726 8.82335 2.09171 9.05001C2.35615 9.27668 2.65837 9.39001 2.99837 9.39001H4.41504C4.8306 9.39001 5.21782 9.47501 5.57671 9.64501C5.9356 9.81501 6.26615 10.0511 6.56837 10.3533C6.83282 10.0511 7.14448 9.81501 7.50337 9.64501C7.86226 9.47501 8.24948 9.39001 8.66504 9.39001C9.0806 9.39001 9.46782 9.47501 9.82671 9.64501C10.1856 9.81501 10.4973 10.0511 10.7617 10.3533C11.0639 10.0511 11.3945 9.81501 11.7534 9.64501C12.1123 9.47501 12.4995 9.39001 12.915 9.39001H14.3317Z" fill="#777777"/>
    </symbol>
    <symbol id="unisexicon" viewBox="0 0 18 18">
        <path d="M15.0684 0.890015H2.31837C1.71393 0.890015 1.20393 1.09779 0.788372 1.51335C0.372817 1.9289 0.165039 2.4389 0.165039 3.04335V17.89H17.165V2.98668C17.165 2.42001 16.9573 1.9289 16.5417 1.51335C16.1262 1.09779 15.6162 0.890015 15.0117 0.890015H15.0684ZM5.15171 16.4733V12.9033C5.15171 12.7145 5.21782 12.5539 5.35004 12.4217C5.48226 12.2895 5.64282 12.2233 5.83171 12.2233H11.4984C11.6873 12.2233 11.8573 12.2895 12.0084 12.4217C12.1595 12.5539 12.235 12.7333 12.235 12.96V16.4733H5.15171ZM15.7484 16.4733H13.6517V12.9033C13.6139 12.3367 13.3967 11.8456 13 11.43C12.6034 11.0145 12.1028 10.8067 11.4984 10.8067H5.83171C5.22726 10.8067 4.72671 11.0145 4.33004 11.43C3.93337 11.8456 3.71615 12.3367 3.67837 12.9033V16.4733H1.58171V2.98668C1.58171 2.79779 1.64782 2.63724 1.78004 2.50501C1.91226 2.37279 2.07282 2.30668 2.26171 2.30668H15.0684C15.2573 2.30668 15.4178 2.37279 15.55 2.50501C15.6823 2.63724 15.7484 2.79779 15.7484 2.98668V16.4733ZM8.66504 3.72335C7.87171 3.72335 7.20115 3.99724 6.65337 4.54501C6.10559 5.09279 5.83171 5.76335 5.83171 6.55668C5.83171 7.35001 6.10559 8.02057 6.65337 8.56835C7.20115 9.11613 7.87171 9.39001 8.66504 9.39001C9.45837 9.39001 10.1289 9.11613 10.6767 8.56835C11.2245 8.02057 11.4984 7.35001 11.4984 6.55668C11.4984 5.76335 11.2245 5.09279 10.6767 4.54501C10.1289 3.99724 9.45837 3.72335 8.66504 3.72335ZM8.66504 7.97335C8.28726 7.97335 7.95671 7.83168 7.67337 7.54835C7.39004 7.26501 7.24837 6.93446 7.24837 6.55668C7.24837 6.1789 7.39004 5.84835 7.67337 5.56501C7.95671 5.28168 8.28726 5.14001 8.66504 5.14001C9.04282 5.14001 9.37337 5.28168 9.65671 5.56501C9.94004 5.84835 10.0817 6.1789 10.0817 6.55668C10.0817 6.93446 9.94004 7.26501 9.65671 7.54835C9.37337 7.83168 9.04282 7.97335 8.66504 7.97335Z" fill="#777777"/>
    </symbol>
    <symbol id="jewelleryicon" viewBox="0 0 18 18">
        <path d="M15.3517 5.99004C15.125 5.7256 14.8605 5.51782 14.5583 5.36671C14.2561 5.2156 13.935 5.14004 13.595 5.14004H3.73499C3.39499 5.14004 3.07388 5.2156 2.77165 5.36671C2.46943 5.51782 2.20499 5.7256 1.97832 5.99004L0.561655 7.97337C0.221655 8.42671 0.0799879 8.91782 0.136655 9.44671C0.193321 9.9756 0.410544 10.41 0.788321 10.75L8.66499 17.8334L16.5417 10.75C16.9194 10.3723 17.1272 9.91893 17.165 9.39004C17.2028 8.86115 17.0705 8.38893 16.7683 7.97337L15.3517 5.99004ZM5.32165 10.07L6.96499 14.4334L2.14832 10.07H5.32165ZM10.4783 10.07L8.66499 14.8867L6.85166 10.07H10.4783ZM6.85166 8.65337L7.70165 6.55671H9.62832L10.4783 8.65337H6.85166ZM12.0083 10.07H15.1817L10.365 14.4334L12.0083 10.07ZM14.1617 6.84004L15.5217 8.65337H11.9517L11.1017 6.55671H13.595C13.8594 6.55671 14.0483 6.65115 14.1617 6.84004ZM3.16832 6.84004C3.28165 6.65115 3.47054 6.55671 3.73499 6.55671H6.22832L5.37832 8.65337H1.80832L3.16832 6.84004ZM7.98499 0.890039H9.40165V3.72337H7.98499V0.890039ZM11.6117 3.49671L13.0283 1.28671L14.2183 2.08004L12.8017 4.29004L11.6117 3.49671ZM3.11165 2.08004L4.30165 1.28671L5.71832 3.49671L4.52832 4.29004L3.11165 2.08004Z" fill="#777777"/>
    </symbol>
    <symbol id="baricon" viewBox="0 0 20 15"> 
        <path d="M5.86667 2.50001H19.2C19.4222 2.50001 19.6111 2.42223 19.7667 2.26667C19.9222 2.11112 20 1.91112 20 1.66667C20 1.42223 19.9222 1.22223 19.7667 1.06667C19.6111 0.911119 19.4222 0.833341 19.2 0.833341H5.86667C5.6 0.833341 5.38889 0.911119 5.23333 1.06667C5.07778 1.22223 5 1.42223 5 1.66667C5 1.91112 5.07778 2.11112 5.23333 2.26667C5.38889 2.42223 5.6 2.50001 5.86667 2.50001ZM19.2 6.63334H5.86667C5.6 6.63334 5.38889 6.72223 5.23333 6.90001C5.07778 7.07779 5 7.27779 5 7.50001C5 7.72223 5.07778 7.92223 5.23333 8.10001C5.38889 8.27779 5.6 8.36667 5.86667 8.36667H19.2C19.4222 8.36667 19.6111 8.27779 19.7667 8.10001C19.9222 7.92223 20 7.72223 20 7.50001C20 7.27779 19.9222 7.07779 19.7667 6.90001C19.6111 6.72223 19.4222 6.63334 19.2 6.63334ZM19.2 12.5H5.86667C5.6 12.5 5.38889 12.5778 5.23333 12.7333C5.07778 12.8889 5 13.0889 5 13.3333C5 13.5778 5.07778 13.7778 5.23333 13.9333C5.38889 14.0889 5.6 14.1667 5.86667 14.1667H19.2C19.4222 14.1667 19.6111 14.0889 19.7667 13.9333C19.9222 13.7778 20 13.5778 20 13.3333C20 13.0889 19.9222 12.8889 19.7667 12.7333C19.6111 12.5778 19.4222 12.5 19.2 12.5ZM0 1.63334C0 2.12223 0.166667 2.53334 0.5 2.86667C0.833333 3.20001 1.22222 3.36667 1.66667 3.36667C2.11111 3.36667 2.5 3.20001 2.83333 2.86667C3.16667 2.53334 3.33333 2.13334 3.33333 1.66667C3.33333 1.20001 3.16667 0.811118 2.83333 0.500008C2.5 0.188896 2.11111 0.0222292 1.66667 7.62939e-06C1.22222 -0.0222149 0.833333 0.133341 0.5 0.466674C0.166667 0.800008 0 1.21112 0 1.70001V1.63334ZM0 7.50001C0 7.94445 0.166667 8.33334 0.5 8.66667C0.833333 9.00001 1.22222 9.16667 1.66667 9.16667C2.11111 9.16667 2.5 9.00001 2.83333 8.66667C3.16667 8.33334 3.33333 7.94445 3.33333 7.50001C3.33333 7.05556 3.16667 6.66667 2.83333 6.33334C2.5 6.00001 2.11111 5.83334 1.66667 5.83334C1.22222 5.83334 0.833333 6.00001 0.5 6.33334C0.166667 6.66667 0 7.05556 0 7.50001ZM0 13.3C0 13.7889 0.166667 14.1889 0.5 14.5C0.833333 14.8111 1.22222 14.9667 1.66667 14.9667C2.11111 14.9667 2.5 14.8111 2.83333 14.5C3.16667 14.1889 3.33333 13.8 3.33333 13.3333C3.33333 12.8667 3.16667 12.4667 2.83333 12.1333C2.5 11.8 2.11111 11.6333 1.66667 11.6333C1.22222 11.6333 0.833333 11.8 0.5 12.1333C0.166667 12.4667 0 12.8556 0 13.3Z" fill="#4B5966"/>
    </symbol>
</svg>
